<svg xmlns="http://www.w3.org/2000/svg" width="24" height="24" viewBox="0 0 24 24">
    <g fill="none" fill-rule="evenodd">
        <g>
            <g>
                <g>
                    <path d="M0 0H24V24H0z" transform="translate(-744 -2190) translate(720 2178) translate(24 12)"/>
                    <path fill="#7B7B7B" d="M6.867 15.275l3.198-4.491V4h2.656v6.784l3.2 4.491H6.866zm13.673 3.069l-5.819-8.199V4h1.362V2h-9.38v2h1.362v6.145L2.34 18.184l-.093.16c-.383.828-.318 1.781.173 2.549.491.769 1.33 1.228 2.241 1.228h13.464c.912 0 1.75-.459 2.242-1.228.491-.768.556-1.721.173-2.549z" transform="translate(-744 -2190) translate(720 2178) translate(24 12)"/>
                </g>
            </g>
        </g>
    </g>
</svg>
