<svg xmlns="http://www.w3.org/2000/svg" width="24" height="24" viewBox="0 0 24 24">
    <g fill="none" fill-rule="evenodd">
        <g>
            <g>
                <g>
                    <path d="M0 0L24 0 24 24 0 24z" transform="translate(-1205 -13) translate(1201 9) translate(4 4)"/>
                    <path fill="#FFF" d="M14.06 9.02l.92.92L5.92 19H5v-.92l9.06-9.06zM17.66 3c-.25 0-.51.1-.7.29l-1.83 1.83 3.75 3.75 1.83-1.83c.39-.39.39-1.02 0-1.41l-2.34-2.34c-.2-.2-.45-.29-.71-.29zm-3.6 3.19L3 17.25V21h3.75L17.81 9.94l-3.75-3.75z" transform="translate(-1205 -13) translate(1201 9) translate(4 4)"/>
                </g>
            </g>
        </g>
    </g>
</svg>
