<svg xmlns="http://www.w3.org/2000/svg" width="20" height="20" viewBox="0 0 20 20">
    <g fill="none" fill-rule="evenodd">
        <g>
            <g>
                <path d="M0 0L20 0 20 20 0 20z" transform="translate(-340 -3090) translate(340 3090)"/>
                <path fill="#198DFF" d="M16.667 1.667H3.333c-.916 0-1.666.75-1.666 1.666v13.334c0 .916.75 1.666 1.666 1.666h13.334c.916 0 1.666-.75 1.666-1.666V3.333c0-.916-.75-1.666-1.666-1.666zm-10 15H3.333v-3.334h3.334v3.334zm0-5H3.333V8.333h3.334v3.334zm0-5H3.333V3.333h3.334v3.334zm5 10H8.333v-3.334h3.334v3.334zm0-5H8.333V8.333h3.334v3.334zm0-5H8.333V3.333h3.334v3.334zm5 10h-3.334v-3.334h3.334v3.334zm0-5h-3.334V8.333h3.334v3.334zm0-5h-3.334V3.333h3.334v3.334z" transform="translate(-340 -3090) translate(340 3090)"/>
            </g>
        </g>
    </g>
</svg>
