<svg xmlns="http://www.w3.org/2000/svg" width="18" height="18" viewBox="0 0 18 18">
    <g fill="none" fill-rule="evenodd">
        <g>
            <g>
                <g>
                    <path d="M0 0L18 0 18 18 0 18z" transform="translate(-1311 -340) translate(1308 337) translate(3 3)"/>
                    <path fill="#FFF" d="M9 4.875c2.842 0 5.377 1.598 6.615 4.125-1.238 2.527-3.765 4.125-6.615 4.125S3.623 11.527 2.385 9C3.623 6.473 6.157 4.875 9 4.875zm0-1.5C5.25 3.375 2.047 5.707.75 9c1.297 3.293 4.5 5.625 8.25 5.625S15.953 12.293 17.25 9C15.953 5.707 12.75 3.375 9 3.375zm0 3.75c1.035 0 1.875.84 1.875 1.875 0 1.035-.84 1.875-1.875 1.875-1.035 0-1.875-.84-1.875-1.875 0-1.035.84-1.875 1.875-1.875zm0-1.5C7.14 5.625 5.625 7.14 5.625 9S7.14 12.375 9 12.375 12.375 10.86 12.375 9 10.86 5.625 9 5.625z" transform="translate(-1311 -340) translate(1308 337) translate(3 3)"/>
                </g>
            </g>
        </g>
    </g>
</svg>
