<svg xmlns="http://www.w3.org/2000/svg" width="16" height="16" viewBox="0 0 16 16">
    <g fill="none" fill-rule="evenodd">
        <g>
            <g>
                <path d="M0 0L16 0 16 16 0 16z" transform="translate(-530 -195) translate(530 195)"/>
                <path fill="#198DFF" d="M10.333 9.333h-.526l-.187-.18c.653-.76 1.047-1.746 1.047-2.82C10.667 3.94 8.727 2 6.333 2 3.94 2 2 3.94 2 6.333c0 2.394 1.94 4.334 4.333 4.334 1.074 0 2.06-.394 2.82-1.047l.18.187v.526l3.334 3.327.993-.993-3.327-3.334zm-4 0c-1.66 0-3-1.34-3-3s1.34-3 3-3 3 1.34 3 3-1.34 3-3 3z" transform="translate(-530 -195) translate(530 195)"/>
            </g>
        </g>
    </g>
</svg>
