<?xml version="1.0" encoding="UTF-8"?>
<svg width="96px" height="18px" viewBox="0 0 96 18" version="1.1" xmlns="http://www.w3.org/2000/svg" xmlns:xlink="http://www.w3.org/1999/xlink">
    <title>MyCobalt</title>
    <g id="MVP" stroke="none" stroke-width="1" fill="none" fill-rule="evenodd">
        <g id="Cobalt---Desktop---Experiments" transform="translate(-25.000000, -17.000000)" fill="#233D83" fill-rule="nonzero">
            <path d="M29.073,31 L29.073,23.096 L32.398,27.105 L33.063,27.105 L36.464,23.077 L36.464,31 L40.188,31 L40.188,17.7 L36.274,17.7 L32.778,22.203 L29.282,17.7 L25.349,17.7 L25.349,31 L29.073,31 Z M46.988,34.971 L52.802,21.614 L49.059,21.614 L48.185,23.837 L47.045,27.105 L46.019,23.856 L45.221,21.614 L41.516,21.614 L45.24,30.582 L43.34,34.971 L46.988,34.971 Z M64.654,31.342 C66.668,31.342 68.492,30.753 69.993,29.271 L67.789,26.801 C66.839,27.77 65.547,28.15 64.654,28.15 C62.032,28.15 61.12,26.193 61.101,24.464 C61.082,22.735 62.089,20.645 64.654,20.645 C65.547,20.645 66.535,20.892 67.485,21.804 L69.803,19.524 C68.302,18.061 66.573,17.396 64.654,17.396 C59.657,17.396 57.358,21.025 57.3768832,24.445 C57.396,28.055 59.429,31.342 64.654,31.342 Z M75.9,31.228 C78.541,31.228 81.258,29.746 81.258,26.326 C81.258,22.906 78.674,21.405 75.9,21.405 C73.183,21.405 70.542,22.849 70.542,26.326 C70.542,29.746 73.202,31.228 75.9,31.228 Z M75.9,28.359 C74.665,28.359 73.962,27.409 73.962,26.326 C73.962,25.243 74.665,24.274 75.9,24.274 C77.135,24.274 77.838,25.243 77.838,26.326 C77.838,27.466 77.078,28.359 75.9,28.359 Z M89.312,31.171 C92.067,31 93.606,29.271 93.606,26.307 C93.606,23.438 91.782,21.405 89.046,21.405 C87.849,21.405 86.956,21.785 86.443,22.412 L86.443,17.7 L82.947,17.7 L82.947,31 L86.063,31 L86.215,29.993 C87.013,30.905 88.267,31.228 89.312,31.171 Z M88.248,28.359 C87.07,28.359 86.367,27.39 86.367,26.402 C86.367,25.262 87.013,24.236 88.248,24.236 C89.293,24.236 90.129,24.996 90.129,26.307 C90.129,27.618 89.293,28.359 88.248,28.359 Z M102.192,29.993 L102.344,31 L105.574,31 L105.574,21.614 L102.287,21.614 L102.116,22.621 C101.622,21.861 100.691,21.405 99.361,21.405 C96.625,21.405 94.801,23.533 94.801,26.307 C94.801,29.043 96.34,31 99.095,31.171 C100.14,31.228 101.394,30.905 102.192,29.993 Z M100.159,28.359 C99.114,28.359 98.278,27.618 98.278,26.307 C98.278,24.996 99.114,24.236 100.159,24.236 C101.394,24.236 102.097,25.053 102.097,26.307 C102.097,27.409 101.337,28.359 100.159,28.359 Z M111.234,31 L111.234,17.681 L107.776,17.681 L107.776,31 L111.234,31 Z M117.749,31.228 C118.718,31.228 119.649,31.057 120.447,30.601 L119.687,28.017 C119.402,28.207 119.003,28.34 118.661,28.34 C118.129,28.34 117.749,28.093 117.73,27.428 L117.73,24.35 L119.858,24.35 L119.858,21.671 L117.749,21.671 L117.749,18.954 L114.272,19.334 L114.272,21.671 L112.771,21.671 L112.771,24.35 L114.272,24.35 L114.272,27.428 C114.215,30.373 115.887,31.228 117.749,31.228 Z" id="MyCobalt"></path>
        </g>
    </g>
</svg>