<svg xmlns="http://www.w3.org/2000/svg" width="24" height="24" viewBox="0 0 24 24">
    <g fill="none" fill-rule="evenodd">
        <g>
            <g>
                <path d="M0 0L24 0 24 24 0 24z" transform="translate(-24 -278) translate(24 278)"/>
                <path fill="#7B7B7B" d="M18 2H6c-1.1 0-2 .9-2 2v16c0 1.1.9 2 2 2h12c1.1 0 2-.9 2-2V4c0-1.1-.9-2-2-2zM9 4h2v5l-1-.75L9 9V4zm9 16H6V4h1v9l3-2.25L13 13V4h5v16z" transform="translate(-24 -278) translate(24 278)"/>
            </g>
        </g>
    </g>
</svg>
