<svg xmlns="http://www.w3.org/2000/svg" width="24" height="24" viewBox="0 0 24 24">
    <g fill="none" fill-rule="evenodd">
        <g>
            <g>
                <path d="M0 0L24 0 24 24 0 24z" transform="translate(-24 -230) translate(24 230)"/>
                <path fill="#7B7B7B" d="M19 3H5c-1.1 0-2 .9-2 2v14c0 1.1.9 2 2 2h14c1.1 0 2-.9 2-2V5c0-1.1-.9-2-2-2zm0 16H5V5h14v14zM7 10h2v7H7v-7zm4-3h2v10h-2V7zm4 6h2v4h-2v-4z" transform="translate(-24 -230) translate(24 230)"/>
            </g>
        </g>
    </g>
</svg>
